<svg width="160.5" height="20.501" viewBox="0 0 579.5 73.501" xmlns="http://www.w3.org/2000/svg"><g id="svgGroup" stroke-linecap="round" fill-rule="evenodd" font-size="9pt" stroke="#000" stroke-width="0.25mm" fill="#000" style="stroke:#000;stroke-width:0.25mm;fill:#000"><path d="M 367.1 72.3 L 359.2 72.3 L 359.2 3.7 L 372.6 3.7 L 384.7 48.7 A 33.665 33.665 0 0 1 385.061 50.223 Q 385.242 51.068 385.407 52.02 A 61.501 61.501 0 0 1 385.6 53.2 Q 386 55.8 386.35 58.3 Q 386.683 60.675 386.835 62.284 A 46.706 46.706 0 0 1 386.85 62.45 L 387 64.1 L 387.4 64.1 L 387.55 62.4 Q 387.699 60.71 387.996 58.229 A 241.324 241.324 0 0 1 388 58.2 Q 388.3 55.7 388.7 53.1 A 52.908 52.908 0 0 1 389.014 51.263 Q 389.185 50.364 389.371 49.588 A 25.782 25.782 0 0 1 389.6 48.7 L 401.8 3.7 L 415.1 3.7 L 415.1 72.3 L 406.3 72.3 L 406.3 22.5 Q 406.3 21.6 406.4 19.85 Q 406.5 18.1 406.65 16.3 Q 406.753 15.062 406.833 14.061 A 351.913 351.913 0 0 0 406.9 13.2 L 407 11.9 L 406.6 11.9 L 406.35 13.2 Q 406.178 14.094 405.935 15.224 A 156.366 156.366 0 0 1 405.7 16.3 Q 405.3 18.1 404.95 19.85 Q 404.662 21.292 404.407 22.157 A 10.128 10.128 0 0 1 404.3 22.5 L 390.6 72.3 L 382.7 72.3 L 369 22.5 Q 368.8 21.8 368.45 20.1 Q 368.1 18.4 367.75 16.5 A 4873.966 4873.966 0 0 0 367.502 15.152 Q 367.306 14.094 367.15 13.25 L 366.9 11.9 L 366.5 11.9 L 366.6 13.25 Q 366.7 14.6 366.8 16.45 Q 366.9 18.3 367 20 A 100.342 100.342 0 0 1 367.044 20.794 Q 367.097 21.845 367.1 22.439 A 13.615 13.615 0 0 1 367.1 22.5 L 367.1 72.3 Z M 107.3 28.5 L 98.3 28.5 Q 98.3 22.769 96.658 18.883 A 13.363 13.363 0 0 0 94.25 15.05 A 13.386 13.386 0 0 0 85.656 10.731 A 18.797 18.797 0 0 0 83.4 10.6 A 20.614 20.614 0 0 0 77.989 11.268 A 13.991 13.991 0 0 0 70 16.8 Q 65.773 22.756 65.607 34.527 A 68.938 68.938 0 0 0 65.6 35.5 L 65.6 40.5 A 57.179 57.179 0 0 0 65.948 47.033 Q 66.775 54.198 69.564 58.553 A 16.415 16.415 0 0 0 70 59.2 A 14.259 14.259 0 0 0 79.558 65.082 A 22.099 22.099 0 0 0 83.4 65.4 A 17.509 17.509 0 0 0 88.371 64.729 A 13.439 13.439 0 0 0 94.45 61 A 13.718 13.718 0 0 0 97.394 55.988 Q 98.129 53.861 98.416 51.249 A 32.528 32.528 0 0 0 98.6 47.7 L 107.3 47.7 Q 107.3 54.738 105.349 59.826 A 21.914 21.914 0 0 1 104.25 62.25 A 20.613 20.613 0 0 1 99.938 67.896 A 18.747 18.747 0 0 1 95.8 70.75 A 25.127 25.127 0 0 1 87.67 73.225 A 32.135 32.135 0 0 1 83.4 73.5 A 31.764 31.764 0 0 1 75.192 72.501 A 21.774 21.774 0 0 1 63.25 64.65 Q 58.389 58.37 56.978 47.584 A 74.066 74.066 0 0 1 56.4 38 A 75.236 75.236 0 0 1 56.942 28.651 Q 58.278 18.013 62.908 11.751 A 22.857 22.857 0 0 1 63.25 11.3 A 22.15 22.15 0 0 1 77.153 3.05 A 33.76 33.76 0 0 1 83.4 2.5 Q 90.4 2.5 95.8 5.35 Q 101.2 8.2 104.25 13.95 Q 106.843 18.838 107.231 25.929 A 46.974 46.974 0 0 1 107.3 28.5 Z M 121.2 72.3 L 111.8 72.3 L 133.7 36.7 L 113.8 3.7 L 124.2 3.7 L 138.9 28.2 L 139 28.2 L 154.1 3.7 L 163.5 3.7 L 143.6 35.9 L 165.7 72.3 L 155.3 72.3 L 138.5 44.3 L 138.4 44.3 L 121.2 72.3 Z M 326.2 72.3 L 318 72.3 L 318 0 L 326.2 0 L 326.2 44.1 L 343.2 19.7 L 352.3 19.7 L 336.8 41.3 L 353.1 72.3 L 343.8 72.3 L 331.8 48.3 L 326.2 54.4 L 326.2 72.3 Z M 481.1 72.3 L 472.9 72.3 L 472.9 19.7 L 479.1 19.7 L 480.2 25.8 L 480.8 25.8 A 16.375 16.375 0 0 1 482.852 22.901 A 12.003 12.003 0 0 1 486.3 20.2 Q 489.6 18.5 493.5 18.5 A 15.936 15.936 0 0 1 497.595 18.999 A 11.654 11.654 0 0 1 502.95 22.05 Q 506.258 25.358 506.484 33.225 A 41.031 41.031 0 0 1 506.5 34.4 L 506.5 72.3 L 498.3 72.3 L 498.3 35 Q 498.3 30.711 497.053 28.642 A 4.337 4.337 0 0 0 496.25 27.65 A 7.035 7.035 0 0 0 492.795 25.972 A 9.988 9.988 0 0 0 490.9 25.8 A 7.686 7.686 0 0 0 485.898 27.668 A 12.1 12.1 0 0 0 484.05 29.6 A 12.844 12.844 0 0 0 481.933 33.822 Q 481.386 35.637 481.198 37.816 A 27.784 27.784 0 0 0 481.1 40.2 L 481.1 72.3 Z M 451.3 41.1 L 451.3 34.3 A 14.306 14.306 0 0 0 451.087 31.756 Q 450.707 29.655 449.65 28.15 A 4.623 4.623 0 0 0 447.756 26.628 Q 446.177 25.896 443.674 25.811 A 19.842 19.842 0 0 0 443 25.8 A 12.476 12.476 0 0 0 440.757 25.987 Q 439.528 26.212 438.591 26.708 A 5.187 5.187 0 0 0 436.65 28.45 A 10.398 10.398 0 0 0 435.089 32.166 A 9.869 9.869 0 0 0 434.9 34.1 L 434.9 35.3 L 426.8 35.3 Q 426.7 34.8 426.7 34.3 L 426.7 33.1 A 17.325 17.325 0 0 1 427.236 28.657 A 11.768 11.768 0 0 1 431.45 22.2 A 17.042 17.042 0 0 1 438.423 19.02 A 24.44 24.44 0 0 1 443.6 18.5 A 26.545 26.545 0 0 1 447.993 18.839 Q 450.383 19.241 452.272 20.119 A 11.727 11.727 0 0 1 455.55 22.35 A 12.567 12.567 0 0 1 458.943 28.387 Q 459.5 30.572 459.5 33.2 L 459.5 62.7 A 6.31 6.31 0 0 0 459.567 63.657 Q 459.643 64.147 459.803 64.534 A 2.325 2.325 0 0 0 460.4 65.4 A 3.559 3.559 0 0 0 461.104 65.895 A 2.538 2.538 0 0 0 462.3 66.2 L 465.5 66.2 L 465.5 71.9 A 5.519 5.519 0 0 1 464.999 72.15 Q 464.465 72.386 463.705 72.623 A 20.123 20.123 0 0 1 463.45 72.7 Q 462.1 73.1 460.1 73.1 A 9.38 9.38 0 0 1 457.504 72.756 A 7.434 7.434 0 0 1 454.75 71.3 A 9.019 9.019 0 0 1 451.933 67.046 A 11.057 11.057 0 0 1 451.8 66.6 L 451.3 66.6 Q 449.3 69.8 445.95 71.65 A 14.997 14.997 0 0 1 439.136 73.489 A 17.796 17.796 0 0 1 438.5 73.5 A 15.61 15.61 0 0 1 436.742 73.395 Q 435.55 73.259 434.2 72.95 Q 431.8 72.4 429.65 70.85 A 10.206 10.206 0 0 1 427.361 68.533 A 13.982 13.982 0 0 1 426.1 66.4 A 12.344 12.344 0 0 1 425.22 63.844 Q 424.7 61.625 424.7 58.7 Q 424.7 53.779 426.268 50.471 A 11.249 11.249 0 0 1 428.15 47.65 A 16.071 16.071 0 0 1 433.399 43.916 A 22.488 22.488 0 0 1 437.65 42.5 Q 443.7 41.1 451.3 41.1 Z M 565.3 41.1 L 565.3 34.3 A 14.306 14.306 0 0 0 565.087 31.756 Q 564.707 29.655 563.65 28.15 A 4.623 4.623 0 0 0 561.756 26.628 Q 560.177 25.896 557.674 25.811 A 19.842 19.842 0 0 0 557 25.8 A 12.476 12.476 0 0 0 554.757 25.987 Q 553.528 26.212 552.591 26.708 A 5.187 5.187 0 0 0 550.65 28.45 A 10.398 10.398 0 0 0 549.089 32.166 A 9.869 9.869 0 0 0 548.9 34.1 L 548.9 35.3 L 540.8 35.3 Q 540.7 34.8 540.7 34.3 L 540.7 33.1 A 17.325 17.325 0 0 1 541.236 28.657 A 11.768 11.768 0 0 1 545.45 22.2 A 17.042 17.042 0 0 1 552.423 19.02 A 24.44 24.44 0 0 1 557.6 18.5 A 26.545 26.545 0 0 1 561.993 18.839 Q 564.383 19.241 566.272 20.119 A 11.727 11.727 0 0 1 569.55 22.35 A 12.567 12.567 0 0 1 572.943 28.387 Q 573.5 30.572 573.5 33.2 L 573.5 62.7 A 6.31 6.31 0 0 0 573.567 63.657 Q 573.643 64.147 573.803 64.534 A 2.325 2.325 0 0 0 574.4 65.4 A 3.559 3.559 0 0 0 575.104 65.895 A 2.538 2.538 0 0 0 576.3 66.2 L 579.5 66.2 L 579.5 71.9 A 5.519 5.519 0 0 1 578.999 72.15 Q 578.465 72.386 577.705 72.623 A 20.123 20.123 0 0 1 577.45 72.7 Q 576.1 73.1 574.1 73.1 A 9.38 9.38 0 0 1 571.504 72.756 A 7.434 7.434 0 0 1 568.75 71.3 A 9.019 9.019 0 0 1 565.933 67.046 A 11.057 11.057 0 0 1 565.8 66.6 L 565.3 66.6 Q 563.3 69.8 559.95 71.65 A 14.997 14.997 0 0 1 553.136 73.489 A 17.796 17.796 0 0 1 552.5 73.5 A 15.61 15.61 0 0 1 550.742 73.395 Q 549.55 73.259 548.2 72.95 Q 545.8 72.4 543.65 70.85 A 10.206 10.206 0 0 1 541.361 68.533 A 13.982 13.982 0 0 1 540.1 66.4 A 12.344 12.344 0 0 1 539.22 63.844 Q 538.7 61.625 538.7 58.7 Q 538.7 53.779 540.268 50.471 A 11.249 11.249 0 0 1 542.15 47.65 A 16.071 16.071 0 0 1 547.399 43.916 A 22.488 22.488 0 0 1 551.65 42.5 Q 557.7 41.1 565.3 41.1 Z M 198.6 72.3 L 172.6 72.3 L 172.6 3.7 L 198.6 3.7 A 21.24 21.24 0 0 1 203.708 4.293 A 17.669 17.669 0 0 1 207.7 5.8 Q 211.7 7.9 214 11.65 A 15.441 15.441 0 0 1 216.075 17.444 A 20.109 20.109 0 0 1 216.3 20.5 A 19.035 19.035 0 0 1 215.674 25.488 A 15.15 15.15 0 0 1 213.25 30.55 Q 210.2 34.7 205.8 36.3 L 205.8 36.7 A 16.836 16.836 0 0 1 213.701 42.03 A 20.882 20.882 0 0 1 214.4 42.9 Q 217.9 47.5 217.9 54.1 A 21.124 21.124 0 0 1 217.402 58.801 A 15.68 15.68 0 0 1 215.25 63.95 Q 212.6 68 208.25 70.15 A 20.983 20.983 0 0 1 200.243 72.247 A 25.086 25.086 0 0 1 198.6 72.3 Z M 21.3 72.3 L 0 72.3 L 0 3.7 L 21.3 3.7 A 28.568 28.568 0 0 1 29.705 4.874 A 21.958 21.958 0 0 1 40.4 12.05 A 26.477 26.477 0 0 1 44.978 20.517 Q 46.284 24.372 46.856 29.106 A 65.999 65.999 0 0 1 47.3 37 A 71.742 71.742 0 0 1 46.692 46.679 Q 46.028 51.541 44.639 55.484 A 27.927 27.927 0 0 1 40.4 63.45 A 22.316 22.316 0 0 1 24.087 72.178 A 31.232 31.232 0 0 1 21.3 72.3 Z M 237.675 72.678 A 20.213 20.213 0 0 0 243.6 73.5 A 23.019 23.019 0 0 0 246.167 73.361 A 15.589 15.589 0 0 0 257.6 66.85 A 17.182 17.182 0 0 0 258.454 65.543 Q 261.176 60.943 262.02 53.39 A 66.759 66.759 0 0 0 262.4 46 A 79.767 79.767 0 0 0 262.38 44.194 Q 262.199 36.19 260.382 30.759 A 20.791 20.791 0 0 0 257.6 25.15 A 15.22 15.22 0 0 0 249.525 19.322 A 20.213 20.213 0 0 0 243.6 18.5 A 23.019 23.019 0 0 0 241.033 18.639 A 15.589 15.589 0 0 0 229.6 25.15 A 17.182 17.182 0 0 0 228.746 26.457 Q 226.024 31.057 225.18 38.61 A 66.759 66.759 0 0 0 224.8 46 A 79.767 79.767 0 0 0 224.82 47.806 Q 225.001 55.81 226.818 61.241 A 20.791 20.791 0 0 0 229.6 66.85 A 15.22 15.22 0 0 0 237.675 72.678 Z M 283.275 72.678 A 20.213 20.213 0 0 0 289.2 73.5 A 23.019 23.019 0 0 0 291.767 73.361 A 15.589 15.589 0 0 0 303.2 66.85 A 17.182 17.182 0 0 0 304.054 65.543 Q 306.776 60.943 307.62 53.39 A 66.759 66.759 0 0 0 308 46 A 79.767 79.767 0 0 0 307.98 44.194 Q 307.799 36.19 305.982 30.759 A 20.791 20.791 0 0 0 303.2 25.15 A 15.22 15.22 0 0 0 295.125 19.322 A 20.213 20.213 0 0 0 289.2 18.5 A 23.019 23.019 0 0 0 286.633 18.639 A 15.589 15.589 0 0 0 275.2 25.15 A 17.182 17.182 0 0 0 274.346 26.457 Q 271.624 31.057 270.78 38.61 A 66.759 66.759 0 0 0 270.4 46 A 79.767 79.767 0 0 0 270.42 47.806 Q 270.601 55.81 272.418 61.241 A 20.791 20.791 0 0 0 275.2 66.85 A 15.22 15.22 0 0 0 283.275 72.678 Z M 8.8 11.7 L 8.8 64.3 L 20.5 64.3 A 17.139 17.139 0 0 0 26.686 63.226 A 15.249 15.249 0 0 0 33.35 58.15 A 19.481 19.481 0 0 0 36.325 52.41 Q 38.1 47.142 38.1 39.5 L 38.1 34.5 A 44.822 44.822 0 0 0 37.724 28.494 Q 37.304 25.395 36.414 22.875 A 17.584 17.584 0 0 0 33.35 17.35 A 15.536 15.536 0 0 0 22.232 11.768 A 21.74 21.74 0 0 0 20.5 11.7 L 8.8 11.7 Z M 528 72.3 L 519.8 72.3 L 519.8 19.7 L 528 19.7 L 528 72.3 Z M 253.8 47.9 L 253.8 44.1 Q 253.8 35.827 251.693 31.273 A 13.468 13.468 0 0 0 251.25 30.4 Q 248.855 26.08 244.211 25.817 A 10.815 10.815 0 0 0 243.6 25.8 Q 239.079 25.8 236.562 29.415 A 11.364 11.364 0 0 0 235.95 30.4 Q 233.4 35 233.4 44.1 L 233.4 47.9 Q 233.4 56.173 235.507 60.727 A 13.468 13.468 0 0 0 235.95 61.6 Q 238.345 65.92 242.989 66.183 A 10.815 10.815 0 0 0 243.6 66.2 Q 248.121 66.2 250.638 62.585 A 11.364 11.364 0 0 0 251.25 61.6 Q 253.8 57 253.8 47.9 Z M 299.4 47.9 L 299.4 44.1 Q 299.4 35.827 297.293 31.273 A 13.468 13.468 0 0 0 296.85 30.4 Q 294.455 26.08 289.811 25.817 A 10.815 10.815 0 0 0 289.2 25.8 Q 284.679 25.8 282.162 29.415 A 11.364 11.364 0 0 0 281.55 30.4 Q 279 35 279 44.1 L 279 47.9 Q 279 56.173 281.107 60.727 A 13.468 13.468 0 0 0 281.55 61.6 Q 283.945 65.92 288.589 66.183 A 10.815 10.815 0 0 0 289.2 66.2 Q 293.721 66.2 296.238 62.585 A 11.364 11.364 0 0 0 296.85 61.6 Q 299.4 57 299.4 47.9 Z M 181.4 41.2 L 181.4 64.3 L 197.4 64.3 A 13.344 13.344 0 0 0 201.297 63.755 A 10.726 10.726 0 0 0 205.5 61.35 A 9.552 9.552 0 0 0 208.284 56.533 Q 208.7 54.882 208.7 52.9 Q 208.7 48.2 205.5 44.7 A 10.559 10.559 0 0 0 199.106 41.369 A 15.147 15.147 0 0 0 196.8 41.2 L 181.4 41.2 Z M 181.4 11.7 L 181.4 33.2 L 196 33.2 Q 201 33.2 204.05 29.95 Q 207.1 26.7 207.1 22.4 Q 207.1 18.701 205.739 16.293 A 7.824 7.824 0 0 0 204.2 14.35 A 9.911 9.911 0 0 0 199.297 11.946 A 14.117 14.117 0 0 0 196.6 11.7 L 181.4 11.7 Z M 451.3 53.2 L 451.3 48.4 A 65.768 65.768 0 0 0 446.838 48.543 Q 444.807 48.682 443.017 48.954 A 36.67 36.67 0 0 0 441.85 49.15 A 16.837 16.837 0 0 0 439.172 49.863 Q 436.991 50.655 435.55 52 A 6.684 6.684 0 0 0 433.715 55.046 Q 433.3 56.438 433.3 58.2 A 17.188 17.188 0 0 0 433.423 60.338 Q 433.714 62.65 434.693 63.939 A 4.189 4.189 0 0 0 435.15 64.45 A 6.025 6.025 0 0 0 437.637 65.841 Q 438.554 66.11 439.65 66.178 A 12.231 12.231 0 0 0 440.4 66.2 Q 443 66.2 445.5 64.75 A 10.606 10.606 0 0 0 448.536 62.071 A 13.676 13.676 0 0 0 449.65 60.4 A 11.973 11.973 0 0 0 450.913 57.037 Q 451.227 55.612 451.286 53.97 A 21.443 21.443 0 0 0 451.3 53.2 Z M 565.3 53.2 L 565.3 48.4 A 65.768 65.768 0 0 0 560.838 48.543 Q 558.807 48.682 557.017 48.954 A 36.67 36.67 0 0 0 555.85 49.15 A 16.837 16.837 0 0 0 553.172 49.863 Q 550.991 50.655 549.55 52 A 6.684 6.684 0 0 0 547.715 55.046 Q 547.3 56.438 547.3 58.2 A 17.188 17.188 0 0 0 547.423 60.338 Q 547.714 62.65 548.693 63.939 A 4.189 4.189 0 0 0 549.15 64.45 A 6.025 6.025 0 0 0 551.637 65.841 Q 552.554 66.11 553.65 66.178 A 12.231 12.231 0 0 0 554.4 66.2 Q 557 66.2 559.5 64.75 A 10.606 10.606 0 0 0 562.536 62.071 A 13.676 13.676 0 0 0 563.65 60.4 A 11.973 11.973 0 0 0 564.913 57.037 Q 565.227 55.612 565.286 53.97 A 21.443 21.443 0 0 0 565.3 53.2 Z M 528.1 9.5 L 519.6 9.5 L 519.6 0 L 528.1 0 L 528.1 9.5 Z" vector-effect="non-scaling-stroke"/></g></svg>